<svg width="237" height="30" viewBox="0 0 237 30" fill="none" xmlns="http://www.w3.org/2000/svg">
<g clip-path="url(#clip0_1_6179)">
<path d="M12.8327 27.4351C15.0227 27.4351 16.9577 26.8538 18.6339 25.6875C20.3102 24.525 21.5439 22.9688 22.3314 21.015H25.1552C24.7089 22.3163 24.0864 23.5126 23.2802 24.6075C22.4739 25.7026 21.5364 26.6438 20.4564 27.4313C19.3802 28.2188 18.1877 28.8413 16.8902 29.3063C15.5889 29.7675 14.2389 30 12.8364 30C11.0214 30 9.33766 29.6663 7.78141 28.9988C6.22516 28.3313 4.87141 27.4238 3.72766 26.2763C2.58016 25.1288 1.67266 23.7788 1.00516 22.2225C0.337656 20.6663 0.00390625 18.9788 0.00390625 17.1675C0.00390625 15.3563 0.337656 13.71 1.00516 12.135C1.67266 10.56 2.58016 9.1988 3.72766 8.05505C4.87516 6.90755 6.22516 6.00005 7.78141 5.33255C9.33766 4.66505 11.0252 4.3313 12.8364 4.3313C14.6477 4.3313 16.2939 4.66505 17.8689 5.33255C19.4439 6.00005 20.8014 6.90755 21.9489 8.05505C23.0964 9.20255 24.0039 10.5638 24.6714 12.135C25.3389 13.71 25.6727 15.3863 25.6727 17.1675V18.45H2.56516C2.77141 19.7513 3.17266 20.9475 3.77266 22.0425C4.37266 23.1375 5.13391 24.0788 6.05641 24.8663C6.97891 25.6538 8.01391 26.2763 9.16141 26.7413C10.3089 27.2025 11.5314 27.4351 12.8327 27.4351ZM12.8327 6.90005C11.5314 6.90005 10.3089 7.13255 9.16141 7.5938C8.01391 8.05505 6.97891 8.6813 6.05641 9.4688C5.13391 10.2563 4.36891 11.205 3.77266 12.3188C3.17266 13.4325 2.77141 14.6213 2.56516 15.885H23.1002C22.8939 14.6175 22.4927 13.4288 21.8927 12.3188C21.2927 11.205 20.5314 10.2563 19.6089 9.4688C18.6864 8.6813 17.6402 8.0588 16.4777 7.5938C15.3152 7.13255 14.1002 6.90005 12.8327 6.90005Z" fill="white"/>
<path d="M39.4502 19.0538L30.1315 28.3726L28.3652 26.6063L37.684 17.2875L28.3652 7.9688L30.1315 6.2063L39.4502 15.5213L48.7652 6.2063L50.5315 7.9688L41.2165 17.2875L50.5315 26.6063L48.7652 28.3726L39.4502 19.0538Z" fill="white"/>
<path d="M82.9724 17.2875C82.9724 19.0837 82.6349 20.7525 81.9561 22.2975C81.2774 23.8387 80.3549 25.1775 79.1849 26.3137C78.0149 27.45 76.6686 28.3463 75.1424 29.01C73.6161 29.67 71.9886 30 70.2599 30C68.5311 30 66.7949 29.67 65.2499 29.01C63.7086 28.35 62.3699 27.45 61.2336 26.3137C60.0974 25.1775 59.2011 23.8387 58.5374 22.2975C57.8774 20.7563 57.5474 19.0875 57.5474 17.2875V0H60.0899V6.20625H66.9561V8.74875H60.0899V17.2913C60.0899 18.6825 60.3599 19.995 60.9036 21.2325C61.4436 22.47 62.1749 23.5463 63.0899 24.4613C64.0049 25.3763 65.0811 26.1075 66.3186 26.6475C67.5561 27.1912 68.8686 27.4613 70.2599 27.4613C71.6511 27.4613 72.9636 27.1912 74.2011 26.6475C75.4386 26.1037 76.5149 25.3763 77.4299 24.4613C78.3449 23.5463 79.0724 22.47 79.6161 21.2325C80.1561 19.995 80.4299 18.6825 80.4299 17.2913H82.9724V17.2875Z" fill="white"/>
<path d="M99.7765 4.57495C101.505 4.57495 103.133 4.90495 104.659 5.56495C106.185 6.22495 107.531 7.12495 108.701 8.2612C109.871 9.39745 110.794 10.7437 111.473 12.3037C112.151 13.8637 112.489 15.525 112.489 17.2875H109.946C109.946 15.9 109.676 14.5837 109.133 13.3462C108.589 12.1087 107.861 11.0325 106.946 10.1175C106.031 9.20245 104.955 8.47495 103.718 7.9312C102.48 7.3912 101.168 7.11745 99.7765 7.11745C98.3852 7.11745 97.0727 7.38745 95.8352 7.9312C94.5977 8.47495 93.5215 9.20245 92.6065 10.1175C91.6915 11.0325 90.9602 12.1087 90.4202 13.3462C89.8765 14.5837 89.6065 15.8962 89.6065 17.2875V30H87.064V17.2875C87.064 15.525 87.394 13.8637 88.054 12.3037C88.714 10.7437 89.614 9.39745 90.7502 8.2612C91.8865 7.12495 93.2252 6.2287 94.7665 5.56495C96.3077 4.90495 97.9765 4.57495 99.7765 4.57495Z" fill="white"/>
<path d="M129.293 4.57495C131.055 4.57495 132.716 4.90495 134.276 5.56495C135.836 6.22495 137.183 7.12495 138.319 8.2612C139.455 9.39745 140.351 10.7437 141.015 12.3037C141.675 13.8637 142.009 15.525 142.009 17.2875V30H139.466V24.915C138.315 26.4412 136.838 27.6712 135.041 28.6012C133.245 29.535 131.329 30 129.296 30C127.5 30 125.831 29.67 124.286 29.01C122.745 28.35 121.403 27.4499 120.27 26.3137C119.134 25.1775 118.238 23.8387 117.574 22.2975C116.914 20.7562 116.584 19.0875 116.584 17.2875C116.584 15.4875 116.914 13.8637 117.574 12.3037C118.234 10.7437 119.134 9.39745 120.27 8.2612C121.406 7.12495 122.745 6.2287 124.286 5.56495C125.828 4.90495 127.496 4.57495 129.296 4.57495H129.293ZM129.293 27.4575C130.68 27.4575 131.996 27.1875 133.234 26.6437C134.471 26.1 135.548 25.3725 136.463 24.4575C137.378 23.5425 138.105 22.4662 138.649 21.2287C139.189 19.9912 139.463 18.6787 139.463 17.2875C139.463 15.8962 139.193 14.5837 138.649 13.3462C138.105 12.1087 137.378 11.0325 136.463 10.1175C135.548 9.20245 134.471 8.47495 133.234 7.9312C131.996 7.3912 130.684 7.11745 129.293 7.11745C127.901 7.11745 126.589 7.38745 125.351 7.9312C124.114 8.47495 123.038 9.20245 122.123 10.1175C121.208 11.0325 120.476 12.1087 119.936 13.3462C119.393 14.5837 119.123 15.8962 119.123 17.2875C119.123 18.6787 119.393 19.9912 119.936 21.2287C120.476 22.4662 121.208 23.5425 122.123 24.4575C123.038 25.3725 124.114 26.1037 125.351 26.6437C126.589 27.1875 127.901 27.4575 129.293 27.4575Z" fill="white"/>
<path d="M158.809 27.4575C160.028 27.4575 161.164 27.2625 162.218 26.8725C163.268 26.4825 164.228 25.95 165.09 25.2712C165.956 24.5925 166.699 23.79 167.329 22.8562C167.955 21.9225 168.424 20.9175 168.728 19.83H171.27C170.966 21.2887 170.423 22.635 169.643 23.8725C168.863 25.11 167.929 26.1862 166.845 27.1012C165.761 28.0162 164.531 28.7287 163.159 29.2387C161.786 29.7487 160.335 30 158.813 30C157.016 30 155.348 29.67 153.803 29.01C152.261 28.35 150.923 27.4499 149.786 26.3137C148.65 25.1775 147.754 23.8387 147.09 22.2975C146.43 20.7562 146.1 19.0875 146.1 17.2875C146.1 15.4875 146.43 13.8637 147.09 12.3037C147.75 10.7437 148.65 9.39745 149.786 8.2612C150.923 7.12495 152.261 6.2287 153.803 5.56495C155.344 4.90495 157.013 4.57495 158.813 4.57495C160.339 4.57495 161.786 4.82995 163.159 5.3362C164.531 5.8462 165.761 6.55495 166.845 7.4737C167.929 8.3887 168.863 9.46495 169.643 10.7025C170.423 11.94 170.966 13.2862 171.27 14.745H168.728C168.424 13.6612 167.955 12.6525 167.329 11.7187C166.703 10.785 165.956 9.98245 165.09 9.3037C164.224 8.62495 163.268 8.09245 162.218 7.70245C161.168 7.31245 160.031 7.11745 158.809 7.11745C157.418 7.11745 156.105 7.38745 154.868 7.9312C153.63 8.47495 152.554 9.20245 151.639 10.1175C150.724 11.0325 149.993 12.1087 149.453 13.3462C148.909 14.5837 148.639 15.8962 148.639 17.2875C148.639 18.6787 148.909 19.9912 149.453 21.2287C149.996 22.4662 150.724 23.5425 151.639 24.4575C152.554 25.3725 153.63 26.1037 154.868 26.6437C156.105 27.1875 157.418 27.4575 158.809 27.4575Z" fill="white"/>
<path d="M175.361 2.5425V0H177.905V2.5425H175.361ZM175.361 30V4.575H177.905V30H175.361Z" fill="white"/>
<path d="M224.224 4.57495C225.952 4.57495 227.58 4.91245 229.106 5.5912C230.632 6.26995 231.979 7.19245 233.149 8.36245C234.319 9.53245 235.241 10.8787 235.92 12.405C236.599 13.9312 236.936 15.5587 236.936 17.2875V30H234.394V17.2875C234.394 15.9 234.124 14.5837 233.58 13.3462C233.036 12.1087 232.309 11.0325 231.394 10.1175C230.479 9.20245 229.402 8.47495 228.165 7.9312C226.927 7.3912 225.615 7.11745 224.224 7.11745C222.832 7.11745 221.52 7.38745 220.282 7.9312C219.045 8.47495 217.969 9.20245 217.054 10.1175C216.139 11.0325 215.407 12.1087 214.867 13.3462C214.324 14.5837 214.054 15.8962 214.054 17.2875V30H211.511V17.2875C211.511 15.5587 211.841 13.9312 212.501 12.405C213.161 10.8787 214.061 9.53245 215.197 8.36245C216.334 7.19245 217.672 6.26995 219.214 5.5912C220.755 4.91245 222.424 4.57495 224.224 4.57495Z" fill="white"/>
<path d="M191.051 29.3288C193.069 29.3288 194.708 27.6938 194.708 25.6725C194.708 22.6013 194.299 19.9875 193.586 17.1375C192.848 14.2388 192.439 11.8125 192.439 8.68504C192.439 6.72379 193.609 4.85629 195.611 4.60504C195.315 4.58254 195.015 4.57129 194.708 4.57129C191.201 4.57129 188.205 5.81254 185.723 8.29879C183.24 10.7813 181.995 13.7775 181.995 17.2838C181.995 20.79 183.236 23.7863 185.723 26.2688C187.076 27.6225 188.58 28.605 190.238 29.22C190.5 29.2838 190.77 29.325 191.051 29.325V29.3288Z" fill="white"/>
<path d="M203.693 8.3025C202.343 6.9525 200.835 5.97 199.182 5.355C198.915 5.29125 198.645 5.25 198.36 5.25C196.343 5.25 194.704 6.885 194.704 8.90625C194.704 11.9775 195.113 14.5912 195.825 17.4412C196.564 20.34 196.973 22.7663 196.973 25.8938C196.973 27.855 195.803 29.7225 193.8 29.9738C194.097 29.9925 194.397 30.0075 194.704 30.0075C198.21 30.0075 201.207 28.7663 203.689 26.28C206.172 23.7975 207.417 20.8012 207.417 17.295C207.417 13.7887 206.175 10.7925 203.689 8.31L203.693 8.3025Z" fill="white"/>
<path d="M60.0977 6.2063H53.2314V8.7488H60.0977V6.2063Z" fill="white"/>
</g>
<defs>
<clipPath id="clip0_1_6179">
<rect width="236.936" height="30" fill="white"/>
</clipPath>
</defs>
</svg>
