<svg width="102" height="24" viewBox="0 0 102 24" fill="none" xmlns="http://www.w3.org/2000/svg">
<g clip-path="url(#clip0_2_1221)">
<path d="M39.0868 2.44049C37.5057 0.859397 35.5733 0.0593262 33.3381 0.0593262C31.103 0.0593262 29.1727 0.861513 27.5916 2.44049C26.0105 4.02158 25.2104 5.95403 25.2104 8.18703V24.0001H27.6488V13.9822C29.215 15.5316 31.1284 16.3168 33.3381 16.3168C35.5479 16.3168 37.5057 15.5168 39.0868 13.9357C40.6679 12.3546 41.468 10.4221 41.468 8.18703C41.468 5.95191 40.6658 4.02158 39.0868 2.44049ZM33.3403 13.8764C31.7549 13.8764 30.4384 13.3303 29.3166 12.2085C28.197 11.0868 27.6509 9.77235 27.6509 8.18491C27.6509 6.59747 28.197 5.28307 29.3166 4.16127C30.4384 3.03948 31.7549 2.4934 33.3403 2.4934C34.9256 2.4934 36.2421 3.03948 37.3639 4.15916C38.4857 5.28095 39.0318 6.59747 39.0318 8.18279C39.0318 9.76812 38.4857 11.0846 37.3639 12.2064C36.2421 13.3282 34.9256 13.8743 33.3403 13.8743V13.8764Z" fill="white"/>
<path d="M58.8938 2.44049C57.3127 0.859397 55.3802 0.0593262 53.1472 0.0593262C50.9142 0.0593262 48.9797 0.861513 47.3986 2.44049C45.8196 4.02158 45.0195 5.95403 45.0195 8.18703C45.0195 10.42 45.8196 12.3546 47.4007 13.9357C48.9818 15.5147 50.9163 16.3147 53.1494 16.3147C55.3824 16.3147 57.3148 15.5147 58.8959 13.9336C60.477 12.3525 61.2771 10.42 61.2771 8.18491C61.2771 5.94979 60.477 4.01946 58.8959 2.43837L58.8938 2.44049ZM53.1472 13.8764C51.5619 13.8764 50.2454 13.3303 49.1236 12.2085C48.0018 11.0868 47.4557 9.77024 47.4557 8.18491C47.4557 6.59959 48.0018 5.28307 49.1236 4.16127C50.2454 3.0416 51.5598 2.49552 53.1472 2.49552C54.7347 2.49552 56.0491 3.0416 57.1709 4.16127C58.2927 5.28307 58.8387 6.59959 58.8387 8.18491C58.8387 9.77024 58.2927 11.0868 57.173 12.2085C56.0491 13.3325 54.7326 13.8764 53.1494 13.8764H53.1472Z" fill="white"/>
<path d="M79.1625 2.44049C77.5814 0.859397 75.6489 0.0593262 73.4138 0.0593262C71.1787 0.0593262 69.2484 0.861513 67.6673 2.44049C66.0862 4.01946 65.2861 5.95403 65.2861 8.18703V15.8554H67.7244V8.18703C67.7244 6.6017 68.2705 5.28518 69.3902 4.16339C70.512 3.0416 71.8285 2.49552 73.4138 2.49552C74.9992 2.49552 76.3157 3.0416 77.4375 4.16127C78.5593 5.28307 79.1032 6.59959 79.1032 8.18491V15.8533H81.5415V8.18491C81.5415 5.95191 80.7393 4.01946 79.1604 2.43837L79.1625 2.44049Z" fill="white"/>
<path d="M101.262 4.95283C100.842 3.96226 100.263 3.09023 99.5344 2.36212C98.8063 1.63402 97.9385 1.05619 96.9437 0.634986C94.9689 -0.2053 92.5814 -0.218 90.6151 0.634986C89.6457 1.05619 88.7758 1.63402 88.0329 2.35789C87.2836 3.086 86.6867 3.95803 86.2571 4.95071C85.8232 5.94762 85.603 7.02285 85.603 8.14888C85.603 9.2749 85.8232 10.3776 86.2571 11.3619C86.6888 12.3461 87.2857 13.2118 88.0329 13.9377C88.78 14.6616 89.6478 15.2416 90.6151 15.6585C91.5909 16.0819 92.647 16.2977 93.7519 16.2977C95.134 16.2977 96.3976 15.9951 97.5067 15.3961C98.2369 15.0024 98.8931 14.5198 99.4646 13.9547V15.849C99.4646 16.6279 99.3206 17.3751 99.037 18.0672C98.7513 18.7593 98.3491 19.3668 97.839 19.8769C97.3247 20.3891 96.713 20.804 96.0188 21.1088C94.6705 21.6972 92.9582 21.7289 91.5401 21.1088C90.8437 20.804 90.232 20.3891 89.7198 19.8769C89.2076 19.3647 88.7927 18.753 88.4879 18.0566C88.1874 17.3687 88.0329 16.6258 88.0329 15.849V15.4003H85.5967V15.849C85.5967 16.9539 85.8168 18.0101 86.2528 18.9879C86.6825 19.9573 87.2794 20.8272 88.0244 21.5723C88.7673 22.3131 89.6351 22.91 90.6066 23.3439C91.5866 23.7778 92.6428 23.9979 93.7477 23.9979C94.8525 23.9979 95.9447 23.7778 96.9458 23.3439C97.9385 22.91 98.8105 22.311 99.5365 21.5659C100.258 20.8209 100.838 19.951 101.257 18.9837C101.681 18.0079 101.897 16.9539 101.897 15.849V8.14676C101.897 7.02285 101.683 5.94974 101.259 4.95283H101.262ZM99.4646 8.14676C99.4646 8.92566 99.3206 9.67282 99.037 10.3649C98.7513 11.0571 98.3491 11.6666 97.839 12.1746C97.3268 12.6868 96.7151 13.1017 96.0188 13.4065C94.6768 13.9949 92.9518 14.0266 91.5401 13.4065C90.8437 13.1017 90.2299 12.6868 89.7198 12.1746C89.2076 11.6645 88.7927 11.0507 88.4879 10.3544C88.1874 9.66647 88.0329 8.92355 88.0329 8.14676C88.0329 7.36997 88.1853 6.62705 88.4879 5.93916C88.7927 5.2428 89.2076 4.62899 89.7198 4.11889C90.2299 3.60879 90.8416 3.19394 91.5401 2.88704C92.2301 2.58648 92.973 2.43197 93.7498 2.43197C94.5647 2.43197 95.3288 2.58436 96.0188 2.88704C96.713 3.19182 97.3268 3.60668 97.839 4.11889C98.3512 4.6311 98.7492 5.23645 99.0349 5.92857C99.3185 6.62282 99.4625 7.36786 99.4625 8.14676H99.4646Z" fill="white"/>
<path d="M5.25126 7.63242C5.25126 8.0134 5.15813 8.36052 4.96763 8.69494L4.80677 8.97433L5.66822 9.47385L5.8312 9.19446C6.11059 8.71399 6.25452 8.18908 6.25452 7.6303V4.97398C6.25452 4.11676 5.9455 3.37172 5.33804 2.76426C4.73058 2.1568 3.98554 1.84778 3.12832 1.84778C2.2711 1.84778 1.52606 2.1568 0.916483 2.76426C0.306905 3.37384 0 4.11676 0 4.9761C0 5.83543 0.306905 6.57835 0.914366 7.18793C1.52394 7.79539 2.26687 8.1023 3.1262 8.1023C3.98554 8.1023 4.65861 7.82291 5.25126 7.26836V7.63242ZM3.1262 7.10115C2.53356 7.10115 2.04251 6.89796 1.62342 6.47888C1.20434 6.05979 1.00115 5.56874 1.00115 4.9761C1.00115 4.38345 1.20434 3.89452 1.62342 3.47544C2.04251 3.05635 2.53356 2.85316 3.1262 2.85316C3.71885 2.85316 4.2099 3.05635 4.62686 3.47544C5.04595 3.89452 5.24914 4.38557 5.24914 4.9761C5.24914 5.56663 5.04595 6.05979 4.62686 6.47888C4.20778 6.89796 3.71673 7.10115 3.1262 7.10115Z" fill="white"/>
<path d="M18.5391 3.98976V7.4779H19.5412V3.41405V2.25839V0.524902H18.5391V2.8341V3.98976Z" fill="white"/>
<path d="M17.4406 3.86047L21.126 1.81677L20.6415 0.943086L16.9561 2.98678L17.4406 3.86047Z" fill="white"/>
<path d="M1.91992 14.7421V18.2302H2.92206V14.1664V13.0107V11.2772H1.91992V13.5864V14.7421Z" fill="white"/>
<path d="M0.820945 14.6119L4.50635 12.5682L4.02186 11.6946L0.336453 13.7382L0.820945 14.6119Z" fill="white"/>
<path d="M10.3884 12.1513C9.56717 12.1513 8.85388 12.4328 8.26335 12.9852V11.275H7.26221V18.228H8.26335V15.2775C8.26335 14.6848 8.46655 14.1938 8.88563 13.7768C9.30471 13.3577 9.79576 13.1546 10.3884 13.1546C10.9811 13.1546 11.4721 13.3577 11.8912 13.7768C12.3103 14.1959 12.5135 14.687 12.5135 15.2775V18.228H13.5146V15.2775C13.5146 14.4203 13.2056 13.6752 12.5981 13.0678C11.9907 12.4603 11.2456 12.1513 10.3884 12.1513Z" fill="white"/>
<path d="M13.9397 5.51578V5.52425C13.8127 5.98567 13.5672 6.35607 13.1904 6.65028C12.801 6.95295 12.3734 7.09899 11.8845 7.09899C11.2919 7.09899 10.8008 6.8958 10.3817 6.47672C10.041 6.13595 9.84199 5.74861 9.78061 5.29989H15.0107V4.97394C15.0107 4.84483 15.0022 4.71571 14.9853 4.58449C14.8879 3.81193 14.5429 3.16002 13.9588 2.64146C13.3703 2.11654 12.6698 1.84985 11.8845 1.84985C11.0992 1.84985 10.3965 2.11654 9.80813 2.64146C9.22395 3.15791 8.87895 3.81405 8.78158 4.5866C8.76677 4.71783 8.7583 4.84694 8.7583 4.97606C8.7583 5.83539 9.06521 6.58043 9.67267 7.18789C10.2822 7.79323 11.0252 8.10226 11.8845 8.10226C12.5978 8.10226 13.2434 7.88001 13.8021 7.444C14.3482 7.01856 14.7165 6.46825 14.8964 5.80576L13.9397 5.52002V5.51578ZM10.4897 3.3738C11.2919 2.66897 12.4729 2.66897 13.2815 3.3738C13.5841 3.63837 13.7873 3.94316 13.9037 4.30086H9.86739C9.98169 3.94316 10.187 3.63837 10.4897 3.3738Z" fill="white"/>
<path d="M20.7024 15.6437V15.6522C20.5754 16.1136 20.3299 16.484 19.9531 16.7782C19.5637 17.0809 19.1361 17.2269 18.6472 17.2269C18.0546 17.2269 17.5635 17.0237 17.1444 16.6046C16.8036 16.2639 16.6047 15.8765 16.5433 15.4278H21.7734V15.1019C21.7734 14.9728 21.7649 14.8436 21.748 14.7124C21.6506 13.9399 21.3056 13.288 20.7215 12.7694C20.133 12.2445 19.4325 11.9778 18.6472 11.9778C17.8619 11.9778 17.1592 12.2445 16.5708 12.7694C15.9866 13.2858 15.6416 13.942 15.5443 14.7145C15.5295 14.8458 15.521 14.9749 15.521 15.104C15.521 15.9633 15.8279 16.7084 16.4354 17.3158C17.0449 17.9212 17.7879 18.2302 18.6472 18.2302C19.3605 18.2302 20.006 18.0079 20.5648 17.5719C21.1109 17.1465 21.4792 16.5962 21.6591 15.9337L20.7024 15.6479V15.6437ZM17.2524 13.5017C18.0546 12.7969 19.2356 12.7969 20.0441 13.5017C20.3468 13.7663 20.55 14.0711 20.6664 14.4288H16.6301C16.7444 14.0711 16.9497 13.7663 17.2524 13.5017Z" fill="white"/>
</g>
<defs>
<clipPath id="clip0_2_1221">
<rect width="101.899" height="24" fill="white"/>
</clipPath>
</defs>
</svg>
