<svg width="76" height="76" viewBox="0 0 76 76" fill="none" xmlns="http://www.w3.org/2000/svg">
<rect width="76" height="76" rx="38" fill="#8CDBED"/>
<g clip-path="url(#clip0_1_4562)">
<path d="M25.772 54.2796C24.331 52.0288 23.309 49.5314 22.7571 46.9106C22.1235 44.1357 20.6518 41.6177 18.5465 39.7164C17.9742 39.2025 17.361 38.7195 16.7171 38.2981H16.6251C16.5638 38.2981 16.5025 38.3289 16.4616 38.3803C14.2745 41.4636 14.5607 46.6023 17.1668 51.1039C18.015 52.5735 19.0881 53.8993 20.3452 55.0401C22.1337 56.7565 24.4536 57.8048 26.9166 58C27.305 58.0103 27.6933 58 28.0715 57.9384L28.4496 57.8767C28.5211 57.8664 28.5722 57.8151 28.5927 57.7431C28.6131 57.6712 28.5927 57.5992 28.5416 57.5478C27.4889 56.5818 26.5487 55.4821 25.772 54.2796Z" fill="white"/>
<path d="M21.7556 35.7905C20.5803 35.7391 19.405 36.0166 18.383 36.6127C18.1071 36.7771 17.8413 36.9621 17.5858 37.1676C17.5347 37.2087 17.5143 37.2807 17.5245 37.3424C17.5245 37.404 17.5654 37.4554 17.6165 37.4862C21.0198 39.4287 23.493 42.6661 24.5048 46.4688C25.6903 50.3639 27.8569 53.8788 30.8002 56.6743C30.8411 56.6846 30.8718 56.6846 30.9127 56.6743C30.9535 56.6846 31.0046 56.6846 31.0455 56.6743C32.7318 55.1635 33.6823 53.0053 33.6618 50.7339C33.7129 47.8973 32.9669 45.1121 31.5054 42.6866C29.1446 38.6168 25.3224 35.9446 21.7556 35.7905Z" fill="white"/>
<path d="M49.5741 47.9281C53.4475 46.7565 56.9427 44.5776 59.7123 41.6075C59.7736 41.5355 59.7736 41.4327 59.7123 41.3608C58.1895 39.6342 55.982 38.6784 53.6928 38.7298C50.9129 38.6886 48.174 39.4492 45.7927 40.8983C40.1615 44.2077 37.4533 50.148 39.7527 54.0946C39.9265 54.3824 40.1104 54.6496 40.3251 54.9065C40.3557 54.9374 40.4068 54.9579 40.4477 54.9682C40.5192 54.9682 40.5806 54.9374 40.6214 54.8757C42.553 51.443 45.7825 48.9353 49.5741 47.9281Z" fill="white"/>
<path d="M60.9082 43.9198C60.8979 43.8273 60.8162 43.7554 60.7242 43.7656C60.6731 43.7656 60.622 43.7862 60.5913 43.8273C57.7604 46.8386 54.0608 48.8735 50.0137 49.6546C46.498 50.4871 43.432 52.6659 41.4698 55.7184C41.4085 55.7903 41.4085 55.9033 41.4698 55.9753C42.8802 56.9105 44.5358 57.4141 46.2221 57.4244C49.0019 57.4552 51.7409 56.7153 54.1221 55.2661C56.3705 53.9712 58.251 52.1212 59.6 49.9013C60.7446 48.1336 61.2045 46.0061 60.9082 43.9198Z" fill="white"/>
<path d="M26.2317 22.0905H27.6114C31.2599 22.2857 34.796 23.4574 37.8314 25.5026C39.8856 26.7975 42.2464 27.5067 44.6685 27.5581C45.8336 27.5992 46.9986 27.4964 48.1331 27.26C48.2353 27.2395 48.3068 27.147 48.2966 27.0442C47.6425 23.2826 43.8407 19.85 38.8533 18.5447C37.6781 18.2261 36.4619 18.0514 35.2457 18.0103C31.2395 17.8664 27.734 19.3155 26.0477 21.7924C26.0069 21.8438 26.0069 21.9157 26.0477 21.9671C26.0784 22.0493 26.1499 22.0905 26.2317 22.0905Z" fill="white"/>
<path d="M48.1739 29.6342C48.2557 29.2951 48.317 28.9559 48.3477 28.6065C48.3477 28.5551 48.3273 28.5037 48.2966 28.4729C48.2659 28.4318 48.2046 28.4112 48.1535 28.4112C46.7125 28.8018 45.2306 28.9765 43.7385 28.9251C41.3572 28.8531 39.0271 28.1851 36.9627 26.9724C33.8047 25.256 30.2788 24.3105 26.6814 24.2283H25.363C25.2608 24.2283 25.1791 24.3105 25.1688 24.4133C25.036 26.6743 25.8842 28.884 27.4888 30.4667C29.4408 32.5017 31.914 33.9508 34.6427 34.6394C35.818 34.9477 37.0342 35.1224 38.2504 35.1738C43.2684 35.3794 47.2337 33.1389 48.1739 29.6342Z" fill="white"/>
</g>
<defs>
<clipPath id="clip0_1_4562">
<rect width="46" height="40" fill="white" transform="translate(15 18)"/>
</clipPath>
</defs>
</svg>
