<svg width="76" height="76" viewBox="0 0 76 76" fill="none" xmlns="http://www.w3.org/2000/svg">
<rect width="76" height="76" rx="38" fill="#8CDBED"/>
<g clip-path="url(#clip0_1_4568)">
<path fill-rule="evenodd" clip-rule="evenodd" d="M62.1429 24.1497H30.7041C30.4618 24.1382 30.2196 24.2242 30.0408 24.4019L28.0972 26.3338V30.7535C28.0972 31.235 27.6992 31.6191 27.2263 31.6191C26.7533 31.6191 26.3554 31.2408 26.3554 30.7535V26.3338L24.4117 24.4019C24.2329 24.2242 23.9907 24.1382 23.7484 24.1497H13.8687C12.8478 24.1497 12 24.9866 12 26.0013V56.1427C12 57.1573 12.8421 57.9943 13.8687 57.9943H23.7484C23.9907 58.0057 24.2329 57.9198 24.4117 57.7421L26.3554 55.8102V51.3905C26.3554 50.9204 26.7533 50.5249 27.2263 50.5249C27.6992 50.5249 28.0972 50.9204 28.0972 51.3905V55.8102L30.0408 57.7421C30.2196 57.9312 30.4618 58.0057 30.7041 57.9943H62.1429C63.1637 57.9943 63.9942 57.1573 63.9942 56.1427V26.0013C63.9942 24.9866 63.1637 24.1497 62.1429 24.1497ZM28.0972 47.3491C28.0972 47.8191 27.6992 48.1975 27.2263 48.1975C26.7533 48.1975 26.3554 47.8191 26.3554 47.3491V43.0898C26.3554 42.6198 26.7533 42.2414 27.2263 42.2414C27.6992 42.2414 28.0972 42.6198 28.0972 43.0898V47.3491ZM28.0972 39.0542C28.0972 39.5242 27.6992 39.9198 27.2263 39.9198C26.7533 39.9198 26.3554 39.5242 26.3554 39.0542V34.8121C26.3554 34.342 26.7533 33.9465 27.2263 33.9465C27.6992 33.9465 28.0972 34.342 28.0972 34.8121V39.0542ZM44.9095 54.3026C37.5732 54.3026 31.6153 48.3809 31.6153 41.0777C31.6153 33.7745 37.5732 27.8643 44.9095 27.8643C52.2458 27.8643 58.2152 33.7745 58.2152 41.0777C58.2152 48.3809 52.2573 54.3026 44.9095 54.3026Z" fill="white"/>
<path fill-rule="evenodd" clip-rule="evenodd" d="M44.9095 29.5725C38.5191 29.5725 33.3398 34.7203 33.3398 41.0719C33.3398 47.4235 38.5191 52.5712 44.9095 52.5712C51.2999 52.5712 56.4907 47.4235 56.4907 41.0719C56.4907 34.7203 51.2999 29.5725 44.9095 29.5725ZM44.9095 40.2177C47.4126 40.2177 49.437 42.2241 49.437 44.7177C49.437 46.8789 47.8913 48.719 45.7804 49.126V50.84C45.7804 51.9693 44.0559 51.9693 44.0559 50.84V49.126C41.9335 48.719 40.3878 46.8731 40.3878 44.7177C40.3878 43.5712 42.1296 43.5712 42.1296 44.7177C42.1296 46.2426 43.3811 47.4865 44.9153 47.4865C46.4494 47.4865 47.7183 46.2426 47.7183 44.7177C47.7183 43.1929 46.461 41.9317 44.9153 41.9317C42.4237 41.9317 40.3878 39.9139 40.3878 37.4317C40.3878 35.2706 41.9335 33.419 44.0559 33.012V31.298C44.0559 30.1687 45.7804 30.1687 45.7804 31.298V33.012C47.8913 33.419 49.437 35.2763 49.437 37.4317C49.437 38.561 47.7125 38.561 47.7125 37.4317C47.7125 35.8954 46.4552 34.6458 44.9095 34.6458C43.3638 34.6458 42.1238 35.8897 42.1238 37.4317C42.1238 38.9738 43.3753 40.2177 44.9095 40.2177Z" fill="white"/>
<path fill-rule="evenodd" clip-rule="evenodd" d="M20.0805 22.4299L55.0605 13.063C56.0468 12.7936 57.0676 13.3783 57.3387 14.3585L59.513 22.4299H30.7446C30.0295 22.4012 29.3258 22.6706 28.8125 23.1751L27.2264 24.763L25.6404 23.1751C25.1271 22.6821 24.4234 22.4012 23.7082 22.4241H20.0747L20.0805 22.4299Z" fill="white"/>
</g>
<defs>
<clipPath id="clip0_1_4568">
<rect width="52" height="45" fill="white" transform="translate(12 13)"/>
</clipPath>
</defs>
</svg>
