<svg width="76" height="76" viewBox="0 0 76 76" fill="none" xmlns="http://www.w3.org/2000/svg">
<rect width="76" height="76" rx="38" fill="#8CDBED"/>
<path d="M30.9833 11C29.0545 11 27.1824 11.7446 25.7075 13.1764C22.8142 16.0974 22.8142 20.8511 25.7075 23.7721C26.0478 24.1157 26.3882 24.3448 26.7286 24.5739H14.475C13.624 24.5739 13 25.2612 13 26.063V33.0504C13 33.9095 13.6808 34.5395 14.475 34.5395H14.8721V59.5109C14.8721 60.37 15.5528 61 16.3471 61H60.6529C61.5039 61 62.1279 60.3127 62.1279 59.5109V34.5395H62.525C63.376 34.5395 64 33.8522 64 33.0504V26.063C64 25.2039 63.3192 24.5739 62.525 24.5739H50.2714C50.6685 24.3448 51.0089 24.0584 51.2925 23.7721C54.1858 20.8511 54.1858 16.0974 51.2925 13.1764C49.8743 11.7446 48.0022 11 46.0734 11C44.1446 11 42.2725 11.7446 40.7976 13.1764C39.8899 14.0928 39.3793 15.2383 38.9255 16.6128C38.7553 17.071 38.6418 17.5865 38.4716 18.0447C38.3582 17.5292 38.188 17.071 38.0178 16.6128C37.564 15.2955 37.0534 14.0928 36.1457 13.1764C34.7842 11.7446 32.8554 11 30.9833 11ZM30.9833 14.0355C32.1179 14.0355 33.2525 14.4937 34.1034 15.3528C34.3871 15.6392 34.8409 16.4983 35.238 17.6438C35.6352 18.7892 35.9755 20.1065 36.2592 21.4238C36.4861 22.512 36.6563 23.543 36.7697 24.4021C35.9188 24.2875 34.8977 24.1157 33.8198 23.8866C32.515 23.6002 31.2102 23.2566 30.0756 22.8557C28.941 22.4548 28.0901 21.9393 27.8065 21.7102C26.0478 19.9347 26.0478 17.1283 27.8065 15.4101C28.6574 14.551 29.792 14.0928 30.9266 14.0928L30.9833 14.0355ZM46.0734 14.0355C47.208 14.0355 48.3426 14.4937 49.1936 15.3528C50.9522 17.1283 50.9522 19.9347 49.1936 21.6529C48.9099 21.9393 48.059 22.3975 46.9244 22.7984C45.7898 23.1993 44.485 23.543 43.1802 23.8293C42.1023 24.0584 41.0812 24.2302 40.2303 24.3448C40.3437 23.4857 40.5139 22.4548 40.7408 21.3666C41.0245 20.0493 41.3649 18.732 41.762 17.5865C42.1591 16.441 42.6696 15.5819 42.8966 15.2955C43.7475 14.4364 44.8821 13.9782 46.0167 13.9782L46.0734 14.0355ZM16.0067 27.6094H33.7063V31.5613H16.0067V27.6094ZM36.713 27.6094H40.3437V58.0218H36.713V27.6094ZM43.3504 27.6094H61.0501V31.5613H43.3504V27.6094ZM17.8788 34.5968H33.7063V58.0218H17.8788V34.5968ZM43.3504 34.5968H59.178V58.0218H43.3504V34.5968Z" fill="white"/>
</svg>
