<svg width="32" height="32" viewBox="0 0 32 32" fill="none" xmlns="http://www.w3.org/2000/svg">
<rect width="32" height="32" rx="16" fill="#EDEFF5"/>
<path fill-rule="evenodd" clip-rule="evenodd" d="M16.6998 11C16.6998 10.6134 16.3864 10.3 15.9998 10.3C15.6132 10.3 15.2998 10.6134 15.2998 11V15.3H11.0003C10.6137 15.3 10.3003 15.6134 10.3003 16C10.3003 16.3866 10.6137 16.7 11.0003 16.7H15.2998V21C15.2998 21.3866 15.6132 21.7 15.9998 21.7C16.3864 21.7 16.6998 21.3866 16.6998 21V16.7H21.0003C21.3869 16.7 21.7003 16.3866 21.7003 16C21.7003 15.6134 21.3869 15.3 21.0003 15.3H16.6998V11Z" fill="#0F0F0F"/>
</svg>
