<svg width="50" height="50" viewBox="0 0 50 50" fill="none" xmlns="http://www.w3.org/2000/svg">
<rect width="50" height="50" rx="10" fill="white"/>
<g clip-path="url(#clip0_276_2304)">
<path d="M16.8349 43.0953H11.3937C8.91746 43.0953 6.90476 41.0826 6.90476 38.6064V32.6064C6.90476 32.0794 6.47937 31.6541 5.95238 31.6541C5.4254 31.6541 5 32.0794 5 32.6064V38.6064C5 42.1302 7.86984 45.0001 11.3937 45.0001H16.8349C17.3619 45.0001 17.7873 44.5747 17.7873 44.0477C17.7873 43.5207 17.3619 43.0953 16.8349 43.0953Z" fill="#58595B"/>
<path d="M44.0478 31.6541C43.5208 31.6541 43.0954 32.0794 43.0954 32.6064V38.6064C43.0954 41.0826 41.0827 43.0953 38.6065 43.0953H33.1653C32.6383 43.0953 32.2129 43.5207 32.2129 44.0477C32.2129 44.5747 32.6383 45.0001 33.1653 45.0001H38.6065C42.1304 45.0001 45.0002 42.1302 45.0002 38.6064V32.6064C45.0002 32.0794 44.5748 31.6541 44.0478 31.6541Z" fill="#58595B"/>
<path d="M38.6065 5H33.1653C32.6383 5 32.2129 5.4254 32.2129 5.95238C32.2129 6.47937 32.6383 6.90476 33.1653 6.90476H38.6065C41.0827 6.90476 43.0954 8.91746 43.0954 11.3937V17.3937C43.0954 17.9206 43.5208 18.346 44.0478 18.346C44.5748 18.346 45.0002 17.9206 45.0002 17.3937V11.3937C45.0002 7.86984 42.1304 5 38.6065 5Z" fill="#58595B"/>
<path d="M5.95238 18.346C6.47937 18.346 6.90476 17.9206 6.90476 17.3937V11.3937C6.90476 8.91746 8.91746 6.90476 11.3937 6.90476H16.8349C17.3619 6.90476 17.7873 6.47937 17.7873 5.95238C17.7873 5.4254 17.3619 5 16.8349 5H11.3937C7.86984 5 5 7.86984 5 11.3937V17.3937C5 17.9206 5.4254 18.346 5.95238 18.346Z" fill="#58595B"/>
<path d="M22.2763 11H11.3938C10.8668 11 10.4414 11.4254 10.4414 11.9524V22.8349C10.4414 23.3619 10.8668 23.7873 11.3938 23.7873H22.2763C22.8033 23.7873 23.2287 23.3619 23.2287 22.8349V11.9524C23.2287 11.4254 22.8033 11 22.2763 11ZM21.3239 21.8825H12.3462V12.9048H21.3239V21.8825Z" fill="#58595B"/>
<path d="M27.7239 23.7873H38.6064C39.1334 23.7873 39.5588 23.3619 39.5588 22.8349V11.9524C39.5588 11.4254 39.1334 11 38.6064 11H27.7239C27.1969 11 26.7715 11.4254 26.7715 11.9524V22.8349C26.7715 23.3619 27.1969 23.7873 27.7239 23.7873ZM28.6762 12.9048H37.654V21.8825H28.6762V12.9048Z" fill="#58595B"/>
<path d="M22.2763 26.2126H11.3938C10.8668 26.2126 10.4414 26.638 10.4414 27.165V38.0476C10.4414 38.5746 10.8668 38.9999 11.3938 38.9999H22.2763C22.8033 38.9999 23.2287 38.5746 23.2287 38.0476V27.165C23.2287 26.638 22.8033 26.2126 22.2763 26.2126ZM21.3239 37.0952H12.3462V28.1174H21.3239V37.0952Z" fill="#58595B"/>
<path d="M39.5588 38.0476V27.165C39.5588 26.638 39.1334 26.2126 38.6064 26.2126H27.7239C27.1969 26.2126 26.7715 26.638 26.7715 27.165V38.0476C26.7715 38.5746 27.1969 38.9999 27.7239 38.9999H38.6064C39.1334 38.9999 39.5588 38.5746 39.5588 38.0476ZM37.654 37.0952H28.6762V28.1174H37.654V37.0952Z" fill="#58595B"/>
</g>
<defs>
<clipPath id="clip0_276_2304">
<rect width="40" height="40" fill="white" transform="translate(5 5)"/>
</clipPath>
</defs>
</svg>
