<svg width="34" height="27" viewBox="0 0 34 27" fill="none" xmlns="http://www.w3.org/2000/svg">
<path d="M29.8756 4.97782H25.9663L24.2712 2.36698C23.7964 1.63545 22.9156 1.18225 21.966 1.18225H12.0366C11.0845 1.18225 10.2062 1.63299 9.73133 2.36698L8.03625 4.97782H4.12697C2.51061 4.97782 1.18701 6.15269 1.18701 7.59112V23.202C1.18701 24.6379 2.51061 25.8153 4.12697 25.8153H29.878C31.4944 25.8153 32.818 24.6404 32.818 23.202V7.59112C32.818 6.15516 31.4944 4.97782 29.878 4.97782H29.8756Z" stroke="white" stroke-width="1.5" stroke-linecap="round" stroke-linejoin="round"/>
<path d="M17.0064 21.7019C20.8883 21.7019 24.0352 18.5514 24.0352 14.665C24.0352 10.7786 20.8883 7.62805 17.0064 7.62805C13.1245 7.62805 9.97754 10.7786 9.97754 14.665C9.97754 18.5514 13.1245 21.7019 17.0064 21.7019Z" stroke="white" stroke-width="1.5" stroke-linecap="round" stroke-linejoin="round"/>
</svg>
