<svg width="65" height="64" viewBox="0 0 65 64" fill="none" xmlns="http://www.w3.org/2000/svg">
<rect x="1.14551" y="0.5" width="63" height="63" stroke="black"/>
<path d="M29.5122 58.6667C28.3122 58.6667 27.2793 58.2667 26.4135 57.4667C25.5477 56.6667 25.0251 55.6889 24.8455 54.5333L24.2455 50.1333C23.6677 49.9111 23.1237 49.6444 22.6135 49.3333C22.1033 49.0222 21.6029 48.6889 21.1122 48.3333L16.9789 50.0667C15.8677 50.5556 14.7566 50.6 13.6455 50.2C12.5344 49.8 11.6677 49.0889 11.0455 48.0667L7.91218 42.6C7.28996 41.5778 7.11218 40.4889 7.37885 39.3333C7.64552 38.1778 8.24552 37.2222 9.17885 36.4667L12.7122 33.8C12.6677 33.4889 12.6455 33.1884 12.6455 32.8987V31.0987C12.6455 30.8107 12.6677 30.5111 12.7122 30.2L9.17885 27.5333C8.24552 26.7778 7.64552 25.8222 7.37885 24.6667C7.11218 23.5111 7.28996 22.4222 7.91218 21.4L11.0455 15.9333C11.6677 14.9111 12.5344 14.2 13.6455 13.8C14.7566 13.4 15.8677 13.4444 16.9789 13.9333L21.1122 15.6667C21.6011 15.3111 22.1122 14.9778 22.6455 14.6667C23.1789 14.3556 23.7122 14.0889 24.2455 13.8667L24.8455 9.46667C25.0233 8.31111 25.546 7.33333 26.4135 6.53333C27.2811 5.73333 28.314 5.33333 29.5122 5.33333H35.7789C36.9789 5.33333 38.0126 5.73333 38.8802 6.53333C39.7477 7.33333 40.2695 8.31111 40.4455 9.46667L41.0455 13.8667C41.6233 14.0889 42.1682 14.3556 42.6802 14.6667C43.1922 14.9778 43.6917 15.3111 44.1789 15.6667L48.3122 13.9333C49.4233 13.4444 50.5344 13.4 51.6455 13.8C52.7566 14.2 53.6233 14.9111 54.2455 15.9333L57.3789 21.4C58.0011 22.4222 58.1789 23.5111 57.9122 24.6667C57.6455 25.8222 57.0455 26.7778 56.1122 27.5333L52.5789 30.2C52.6233 30.5111 52.6455 30.8116 52.6455 31.1013V32.8987C52.6455 33.1884 52.6011 33.4889 52.5122 33.8L56.0455 36.4667C56.9789 37.2222 57.5789 38.1778 57.8455 39.3333C58.1122 40.4889 57.9344 41.5778 57.3122 42.6L54.1122 48.0667C53.49 49.0889 52.6233 49.8 51.5122 50.2C50.4011 50.6 49.29 50.5556 48.1789 50.0667L44.1789 48.3333C43.69 48.6889 43.1788 49.0222 42.6455 49.3333C42.1122 49.6444 41.5789 49.9111 41.0455 50.1333L40.4455 54.5333C40.2677 55.6889 39.746 56.6667 38.8802 57.4667C38.0144 58.2667 36.9806 58.6667 35.7789 58.6667H29.5122ZM29.9788 53.3333H35.2455L36.1788 46.2667C37.5566 45.9111 38.8348 45.3893 40.0135 44.7013C41.1922 44.0133 42.2695 43.1796 43.2455 42.2L49.8455 44.9333L52.4455 40.4L46.7122 36.0667C46.9344 35.4444 47.09 34.7893 47.1789 34.1013C47.2677 33.4133 47.3122 32.7129 47.3122 32C47.3122 31.2871 47.2677 30.5876 47.1789 29.9013C47.09 29.2151 46.9344 28.5591 46.7122 27.9333L52.4455 23.6L49.8455 19.0667L43.2455 21.8667C42.2677 20.8444 41.1904 19.9893 40.0135 19.3013C38.8366 18.6133 37.5584 18.0907 36.1788 17.7333L35.3122 10.6667H30.0455L29.1122 17.7333C27.7344 18.0889 26.4571 18.6116 25.2802 19.3013C24.1033 19.9911 23.0251 20.824 22.0455 21.8L15.4455 19.0667L12.8455 23.6L18.5788 27.8667C18.3566 28.5333 18.2011 29.2 18.1122 29.8667C18.0233 30.5333 17.9789 31.2444 17.9789 32C17.9789 32.7111 18.0233 33.4 18.1122 34.0667C18.2011 34.7333 18.3566 35.4 18.5788 36.0667L12.8455 40.4L15.4455 44.9333L22.0455 42.1333C23.0233 43.1556 24.1015 44.0116 25.2802 44.7013C26.4589 45.3911 27.7362 45.9129 29.1122 46.2667L29.9788 53.3333ZM32.7789 41.3333C35.3566 41.3333 37.5566 40.4222 39.3788 38.6C41.2011 36.7778 42.1122 34.5778 42.1122 32C42.1122 29.4222 41.2011 27.2222 39.3788 25.4C37.5566 23.5778 35.3566 22.6667 32.7789 22.6667C30.1566 22.6667 27.946 23.5778 26.1469 25.4C24.3477 27.2222 23.4473 29.4222 23.4455 32C23.4437 34.5778 24.3442 36.7778 26.1469 38.6C27.9495 40.4222 30.1602 41.3333 32.7789 41.3333Z" fill="#1A1A1A"/>
</svg>
