<svg width="23" height="25" viewBox="0 0 23 25" fill="none" xmlns="http://www.w3.org/2000/svg">
<path d="M21.9453 25H13.4573C12.8724 25 12.4027 24.5321 12.4027 23.9597V17.6631H10.5973V23.9597C10.5973 24.5366 10.1229 25 9.54265 25H1.05467C0.469764 25 0 24.5321 0 23.9597V10.8032C0 10.517 0.119744 10.2444 0.331598 10.0491L10.7723 0.286208C11.1776 -0.0954025 11.8178 -0.0954025 12.2231 0.286208L22.6684 10.0445C22.8803 10.2399 23 10.5124 23 10.7987V23.9551C23 24.5321 22.5256 24.9955 21.9453 24.9955V25ZM14.512 22.9148H20.8861V11.2484L11.5 2.47592L2.11394 11.2484V22.9148H8.48799V16.6182C8.48799 16.0413 8.96235 15.5779 9.54265 15.5779H13.4573C14.0423 15.5779 14.512 16.0458 14.512 16.6182V22.9148Z" fill="white"/>
</svg>
