<svg width="76" height="76" viewBox="0 0 76 76" fill="none" xmlns="http://www.w3.org/2000/svg">
<rect width="76" height="76" rx="38" fill="#8CDBED"/>
<path d="M68.9802 28.108C68.8548 27.3782 68.1687 26.8939 67.443 27.0199L20.0345 35.2796C16.3268 35.9231 13.833 39.4857 14.4729 43.2141L14.7896 45.065L8.27142 46.2061C8.18566 46.2194 8.10649 46.2725 8.06031 46.3388C8.00753 46.4118 7.98774 46.498 8.00753 46.5843C8.52872 49.6227 11.702 51.6926 15.4559 51.6926C16.0431 51.6926 16.65 51.6395 17.257 51.5334C19.4209 51.1552 21.3474 50.1468 22.6734 48.694C24.0259 47.2145 24.6064 45.4565 24.3096 43.7382C24.2766 43.5591 24.105 43.433 23.9269 43.4662L17.4087 44.6006L17.0921 42.7497C16.7028 40.4741 18.2202 38.2981 20.4831 37.9067L27.0145 36.7656L27.3707 38.8289C27.4301 39.1871 27.628 39.4857 27.9051 39.6847H27.4037C27.285 39.6847 27.186 39.7643 27.1596 39.8837L23.729 56.7015C23.7158 56.7744 23.729 56.8474 23.7818 56.9071C23.828 56.9668 23.9005 57 23.9731 57H33.4667C33.5392 57 33.6118 56.9668 33.658 56.9071C33.7042 56.8474 33.724 56.7744 33.7108 56.7015L30.2802 39.8837C30.2538 39.7709 30.1548 39.6847 30.0361 39.6847H29.4555C29.8579 39.3928 30.0822 38.8952 29.9899 38.3777L29.6336 36.3145L45.9027 33.4817C44.1346 34.5299 43.0988 36.5998 43.4682 38.7493C43.8971 41.2305 46.0478 42.9819 48.469 42.9819C48.7527 42.9819 49.0496 42.9553 49.3399 42.9089C52.0976 42.4312 53.9514 39.7842 53.4764 37.0111C53.2455 35.6643 52.5066 34.4967 51.3982 33.7072C50.7979 33.2827 50.1316 33.004 49.4322 32.8713L67.8982 29.6537C68.6239 29.5277 69.1055 28.8377 68.9802 28.108ZM23.7092 44.1893C23.8477 45.5958 23.3134 47.0221 22.1918 48.2495C20.9581 49.5962 19.1636 50.5316 17.1448 50.8832C13.1469 51.5732 9.46554 49.7621 8.72664 46.8032L14.9083 45.7285L15.39 48.5082C15.5153 49.238 16.2014 49.7223 16.9271 49.5962C17.6528 49.4702 18.1344 48.7802 18.0091 48.0504L17.5275 45.2707L23.7092 44.1959V44.1893ZM52.8299 37.1239C53.2455 39.5387 51.6292 41.8408 49.2343 42.2588C46.8329 42.6701 44.5436 41.0513 44.128 38.6431C43.7123 36.2282 45.3287 33.9262 47.7235 33.5082C47.9808 33.4618 48.2315 33.4419 48.4888 33.4419C49.3927 33.4419 50.2701 33.7205 51.0222 34.2512C51.9854 34.9346 52.6254 35.9562 52.8299 37.1239Z" fill="white"/>
</svg>
